<mxfile host="65bd71144e" pages="4">
    <diagram id="RWeOAwpdm6szLaTIHd15" name="*ベンチマークマスタ管理_登録">
        <mxGraphModel dx="1918" dy="484" grid="1" gridSize="10" guides="1" tooltips="1" connect="1" arrows="1" fold="1" page="1" pageScale="1" pageWidth="827" pageHeight="1169" math="0" shadow="0">
            <root>
                <mxCell id="0"/>
                <mxCell id="1" parent="0"/>
                <mxCell id="R05j1q6MOaR2_SYUFppI-1" value="管理者&lt;br&gt;正規社員" style="shape=umlActor;verticalLabelPosition=bottom;verticalAlign=top;html=1;" parent="1" vertex="1">
                    <mxGeometry x="-70" y="280" width="30" height="60" as="geometry"/>
                </mxCell>
                <mxCell id="R05j1q6MOaR2_SYUFppI-2" value="ログイン済&lt;br&gt;ホーム画面" style="shape=umlBoundary;whiteSpace=wrap;html=1;fillColor=#dae8fc;strokeColor=#6c8ebf;" parent="1" vertex="1">
                    <mxGeometry x="120" y="120" width="100" height="80" as="geometry"/>
                </mxCell>
                <mxCell id="R05j1q6MOaR2_SYUFppI-3" value="ベンチマーク&lt;br&gt;情報一覧画面" style="shape=umlBoundary;whiteSpace=wrap;html=1;fillColor=#dae8fc;strokeColor=#6c8ebf;" parent="1" vertex="1">
                    <mxGeometry x="120" y="280" width="100" height="80" as="geometry"/>
                </mxCell>
                <mxCell id="R05j1q6MOaR2_SYUFppI-4" value="新規登録&lt;br&gt;画面" style="shape=umlBoundary;whiteSpace=wrap;html=1;fillColor=#dae8fc;strokeColor=#6c8ebf;" parent="1" vertex="1">
                    <mxGeometry x="120" y="440" width="100" height="80" as="geometry"/>
                </mxCell>
                <mxCell id="R05j1q6MOaR2_SYUFppI-5" value="ベンチマーク&lt;br&gt;マスタ情報&lt;br&gt;を取得する" style="ellipse;shape=umlControl;whiteSpace=wrap;html=1;fillColor=#f8cecc;strokeColor=#b85450;" parent="1" vertex="1">
                    <mxGeometry x="440" y="110" width="80" height="90" as="geometry"/>
                </mxCell>
                <mxCell id="R05j1q6MOaR2_SYUFppI-6" value="ベンチマーク情報" style="ellipse;shape=umlEntity;whiteSpace=wrap;html=1;fillColor=#d5e8d4;strokeColor=#82b366;" parent="1" vertex="1">
                    <mxGeometry x="720" y="200" width="80" height="80" as="geometry"/>
                </mxCell>
                <mxCell id="R05j1q6MOaR2_SYUFppI-7" value="表示する" style="ellipse;shape=umlControl;whiteSpace=wrap;html=1;fillColor=#f8cecc;strokeColor=#b85450;" parent="1" vertex="1">
                    <mxGeometry x="440" y="280" width="70" height="80" as="geometry"/>
                </mxCell>
                <mxCell id="R05j1q6MOaR2_SYUFppI-8" value="" style="endArrow=classic;html=1;rounded=0;" parent="1" edge="1">
                    <mxGeometry width="50" height="50" relative="1" as="geometry">
                        <mxPoint x="235" y="319.28999999999996" as="sourcePoint"/>
                        <mxPoint x="430" y="319" as="targetPoint"/>
                    </mxGeometry>
                </mxCell>
                <mxCell id="R05j1q6MOaR2_SYUFppI-9" value="「ベンチマークマスタ情報」&lt;br&gt;を押下" style="text;html=1;strokeColor=none;fillColor=none;align=center;verticalAlign=middle;whiteSpace=wrap;rounded=0;" parent="1" vertex="1">
                    <mxGeometry x="240" y="130" width="170" height="30" as="geometry"/>
                </mxCell>
                <mxCell id="R05j1q6MOaR2_SYUFppI-10" value="" style="endArrow=classic;html=1;rounded=0;" parent="1" edge="1">
                    <mxGeometry width="50" height="50" relative="1" as="geometry">
                        <mxPoint x="-30" y="320" as="sourcePoint"/>
                        <mxPoint x="110" y="160" as="targetPoint"/>
                    </mxGeometry>
                </mxCell>
                <mxCell id="R05j1q6MOaR2_SYUFppI-11" value="" style="endArrow=classic;html=1;rounded=0;" parent="1" edge="1">
                    <mxGeometry width="50" height="50" relative="1" as="geometry">
                        <mxPoint x="-30" y="320" as="sourcePoint"/>
                        <mxPoint x="110" y="480" as="targetPoint"/>
                    </mxGeometry>
                </mxCell>
                <mxCell id="R05j1q6MOaR2_SYUFppI-12" value="" style="endArrow=classic;html=1;rounded=0;" parent="1" edge="1">
                    <mxGeometry width="50" height="50" relative="1" as="geometry">
                        <mxPoint x="-30" y="320" as="sourcePoint"/>
                        <mxPoint x="110" y="320" as="targetPoint"/>
                    </mxGeometry>
                </mxCell>
                <mxCell id="R05j1q6MOaR2_SYUFppI-13" value="" style="endArrow=classic;html=1;rounded=0;startArrow=classic;startFill=1;" parent="1" edge="1">
                    <mxGeometry width="50" height="50" relative="1" as="geometry">
                        <mxPoint x="520" y="160" as="sourcePoint"/>
                        <mxPoint x="710" y="240" as="targetPoint"/>
                    </mxGeometry>
                </mxCell>
                <mxCell id="R05j1q6MOaR2_SYUFppI-14" value="" style="endArrow=classic;html=1;rounded=0;" parent="1" edge="1">
                    <mxGeometry width="50" height="50" relative="1" as="geometry">
                        <mxPoint x="230" y="159.58000000000004" as="sourcePoint"/>
                        <mxPoint x="425" y="159.29000000000008" as="targetPoint"/>
                    </mxGeometry>
                </mxCell>
                <mxCell id="R05j1q6MOaR2_SYUFppI-15" value="" style="endArrow=classic;html=1;rounded=0;" parent="1" edge="1">
                    <mxGeometry width="50" height="50" relative="1" as="geometry">
                        <mxPoint x="430" y="170" as="sourcePoint"/>
                        <mxPoint x="240" y="310" as="targetPoint"/>
                    </mxGeometry>
                </mxCell>
                <mxCell id="R05j1q6MOaR2_SYUFppI-16" value="" style="endArrow=classic;html=1;rounded=0;" parent="1" edge="1">
                    <mxGeometry width="50" height="50" relative="1" as="geometry">
                        <mxPoint x="430" y="330" as="sourcePoint"/>
                        <mxPoint x="240" y="470" as="targetPoint"/>
                    </mxGeometry>
                </mxCell>
                <mxCell id="R05j1q6MOaR2_SYUFppI-17" value="登録する" style="ellipse;shape=umlControl;whiteSpace=wrap;html=1;fillColor=#f8cecc;strokeColor=#b85450;" parent="1" vertex="1">
                    <mxGeometry x="440" y="600" width="70" height="80" as="geometry"/>
                </mxCell>
                <mxCell id="R05j1q6MOaR2_SYUFppI-18" value="入力データを検証する" style="ellipse;shape=umlControl;whiteSpace=wrap;html=1;fillColor=#f8cecc;strokeColor=#b85450;" parent="1" vertex="1">
                    <mxGeometry x="440" y="440" width="70" height="80" as="geometry"/>
                </mxCell>
                <mxCell id="R05j1q6MOaR2_SYUFppI-19" value="" style="endArrow=none;html=1;rounded=0;jumpStyle=none;startArrow=classic;startFill=1;endFill=0;" parent="1" edge="1">
                    <mxGeometry width="50" height="50" relative="1" as="geometry">
                        <mxPoint x="474.40999999999985" y="590" as="sourcePoint"/>
                        <mxPoint x="474.40999999999985" y="530" as="targetPoint"/>
                    </mxGeometry>
                </mxCell>
                <mxCell id="R05j1q6MOaR2_SYUFppI-20" value="" style="endArrow=classic;html=1;rounded=0;" parent="1" edge="1">
                    <mxGeometry width="50" height="50" relative="1" as="geometry">
                        <mxPoint x="240" y="479.5799999999999" as="sourcePoint"/>
                        <mxPoint x="435" y="479.28999999999996" as="targetPoint"/>
                    </mxGeometry>
                </mxCell>
                <mxCell id="R05j1q6MOaR2_SYUFppI-21" value="" style="endArrow=classic;html=1;rounded=0;" parent="1" edge="1">
                    <mxGeometry width="50" height="50" relative="1" as="geometry">
                        <mxPoint x="520" y="640" as="sourcePoint"/>
                        <mxPoint x="710" y="250" as="targetPoint"/>
                    </mxGeometry>
                </mxCell>
            </root>
        </mxGraphModel>
    </diagram>
    <diagram id="kNyEyUyUbylaJBoFLzu6" name="*ベンチマークマスタ管理_参照">
        <mxGraphModel dx="1726" dy="399" grid="1" gridSize="10" guides="1" tooltips="1" connect="1" arrows="1" fold="1" page="1" pageScale="1" pageWidth="827" pageHeight="1169" math="0" shadow="0">
            <root>
                <mxCell id="Noq5ilU5FU8ZEYIdX7iq-0"/>
                <mxCell id="Noq5ilU5FU8ZEYIdX7iq-1" parent="Noq5ilU5FU8ZEYIdX7iq-0"/>
                <mxCell id="X151rZw9UmWIeHh70C7F-0" value="管理者&lt;br&gt;正規社員" style="shape=umlActor;verticalLabelPosition=bottom;verticalAlign=top;html=1;" parent="Noq5ilU5FU8ZEYIdX7iq-1" vertex="1">
                    <mxGeometry x="-70" y="280" width="30" height="60" as="geometry"/>
                </mxCell>
                <mxCell id="X151rZw9UmWIeHh70C7F-1" value="ログイン済&lt;br&gt;ホーム画面" style="shape=umlBoundary;whiteSpace=wrap;html=1;fillColor=#dae8fc;strokeColor=#6c8ebf;" parent="Noq5ilU5FU8ZEYIdX7iq-1" vertex="1">
                    <mxGeometry x="120" y="120" width="100" height="80" as="geometry"/>
                </mxCell>
                <mxCell id="X151rZw9UmWIeHh70C7F-2" value="詳細画面" style="shape=umlBoundary;whiteSpace=wrap;html=1;fillColor=#dae8fc;strokeColor=#6c8ebf;" parent="Noq5ilU5FU8ZEYIdX7iq-1" vertex="1">
                    <mxGeometry x="120" y="440" width="100" height="80" as="geometry"/>
                </mxCell>
                <mxCell id="X151rZw9UmWIeHh70C7F-3" value="" style="endArrow=classic;html=1;rounded=0;" parent="Noq5ilU5FU8ZEYIdX7iq-1" edge="1">
                    <mxGeometry width="50" height="50" relative="1" as="geometry">
                        <mxPoint x="-30" y="320" as="sourcePoint"/>
                        <mxPoint x="110" y="159.9999999999999" as="targetPoint"/>
                    </mxGeometry>
                </mxCell>
                <mxCell id="X151rZw9UmWIeHh70C7F-4" value="" style="endArrow=classic;html=1;rounded=0;" parent="Noq5ilU5FU8ZEYIdX7iq-1" edge="1">
                    <mxGeometry width="50" height="50" relative="1" as="geometry">
                        <mxPoint x="-30" y="320" as="sourcePoint"/>
                        <mxPoint x="100.00000000000045" y="320" as="targetPoint"/>
                    </mxGeometry>
                </mxCell>
                <mxCell id="X151rZw9UmWIeHh70C7F-5" value="" style="endArrow=classic;html=1;rounded=0;" parent="Noq5ilU5FU8ZEYIdX7iq-1" edge="1">
                    <mxGeometry width="50" height="50" relative="1" as="geometry">
                        <mxPoint x="-30" y="320" as="sourcePoint"/>
                        <mxPoint x="110" y="480" as="targetPoint"/>
                    </mxGeometry>
                </mxCell>
                <mxCell id="X151rZw9UmWIeHh70C7F-7" value="ベンチマーク情報" style="ellipse;shape=umlEntity;whiteSpace=wrap;html=1;fillColor=#d5e8d4;strokeColor=#82b366;" parent="Noq5ilU5FU8ZEYIdX7iq-1" vertex="1">
                    <mxGeometry x="720" y="200" width="80" height="80" as="geometry"/>
                </mxCell>
                <mxCell id="X151rZw9UmWIeHh70C7F-8" value="表示する" style="ellipse;shape=umlControl;whiteSpace=wrap;html=1;fillColor=#f8cecc;strokeColor=#b85450;" parent="Noq5ilU5FU8ZEYIdX7iq-1" vertex="1">
                    <mxGeometry x="440" y="280" width="70" height="80" as="geometry"/>
                </mxCell>
                <mxCell id="X151rZw9UmWIeHh70C7F-9" value="" style="endArrow=classic;html=1;rounded=0;" parent="Noq5ilU5FU8ZEYIdX7iq-1" edge="1">
                    <mxGeometry width="50" height="50" relative="1" as="geometry">
                        <mxPoint x="240" y="159.17000000000007" as="sourcePoint"/>
                        <mxPoint x="430" y="159.0000000000001" as="targetPoint"/>
                    </mxGeometry>
                </mxCell>
                <mxCell id="X151rZw9UmWIeHh70C7F-10" value="「ベンチマークマスタ情報」&lt;br&gt;を押下" style="text;html=1;strokeColor=none;fillColor=none;align=center;verticalAlign=middle;whiteSpace=wrap;rounded=0;" parent="Noq5ilU5FU8ZEYIdX7iq-1" vertex="1">
                    <mxGeometry x="254" y="120" width="160" height="30" as="geometry"/>
                </mxCell>
                <mxCell id="X151rZw9UmWIeHh70C7F-11" value="" style="endArrow=classic;html=1;rounded=0;startArrow=classic;startFill=1;" parent="Noq5ilU5FU8ZEYIdX7iq-1" edge="1">
                    <mxGeometry width="50" height="50" relative="1" as="geometry">
                        <mxPoint x="520" y="159.9999999999999" as="sourcePoint"/>
                        <mxPoint x="710.0000000000005" y="240" as="targetPoint"/>
                    </mxGeometry>
                </mxCell>
                <mxCell id="X151rZw9UmWIeHh70C7F-12" value="" style="endArrow=none;html=1;rounded=0;jumpStyle=none;startArrow=classic;startFill=1;endFill=0;" parent="Noq5ilU5FU8ZEYIdX7iq-1" edge="1">
                    <mxGeometry width="50" height="50" relative="1" as="geometry">
                        <mxPoint x="430" y="320" as="sourcePoint"/>
                        <mxPoint x="240" y="320" as="targetPoint"/>
                    </mxGeometry>
                </mxCell>
                <mxCell id="X151rZw9UmWIeHh70C7F-13" value="" style="endArrow=classic;html=1;rounded=0;" parent="Noq5ilU5FU8ZEYIdX7iq-1" edge="1">
                    <mxGeometry width="50" height="50" relative="1" as="geometry">
                        <mxPoint x="430" y="170" as="sourcePoint"/>
                        <mxPoint x="240" y="310" as="targetPoint"/>
                    </mxGeometry>
                </mxCell>
                <mxCell id="X151rZw9UmWIeHh70C7F-14" value="" style="endArrow=none;html=1;rounded=0;jumpStyle=none;startArrow=classic;startFill=1;endFill=0;" parent="Noq5ilU5FU8ZEYIdX7iq-1" edge="1">
                    <mxGeometry width="50" height="50" relative="1" as="geometry">
                        <mxPoint x="240" y="480" as="sourcePoint"/>
                        <mxPoint x="430" y="330" as="targetPoint"/>
                    </mxGeometry>
                </mxCell>
                <mxCell id="X151rZw9UmWIeHh70C7F-15" value="ベンチマーク&lt;br&gt;情報一覧画面" style="shape=umlBoundary;whiteSpace=wrap;html=1;fillColor=#dae8fc;strokeColor=#6c8ebf;" parent="Noq5ilU5FU8ZEYIdX7iq-1" vertex="1">
                    <mxGeometry x="120" y="280" width="100" height="80" as="geometry"/>
                </mxCell>
                <mxCell id="6jQ6UgOFRzboO_oVdpWV-0" value="ベンチマーク&lt;br&gt;マスタ情報&lt;br&gt;を取得する" style="ellipse;shape=umlControl;whiteSpace=wrap;html=1;fillColor=#f8cecc;strokeColor=#b85450;" parent="Noq5ilU5FU8ZEYIdX7iq-1" vertex="1">
                    <mxGeometry x="440" y="110" width="80" height="90" as="geometry"/>
                </mxCell>
            </root>
        </mxGraphModel>
    </diagram>
    <diagram id="8uVS_xQF8xlp2i3T6R5J" name="*ベンチマークマスタ管理_編集">
        <mxGraphModel dx="1591" dy="339" grid="1" gridSize="10" guides="1" tooltips="1" connect="1" arrows="1" fold="1" page="1" pageScale="1" pageWidth="827" pageHeight="1169" math="0" shadow="0">
            <root>
                <mxCell id="Vqz1aeMNSxQNZWVuaeiP-0"/>
                <mxCell id="Vqz1aeMNSxQNZWVuaeiP-1" parent="Vqz1aeMNSxQNZWVuaeiP-0"/>
                <mxCell id="nSiE_fP1zriIZRK4lQzF-0" value="管理者&lt;br&gt;正規社員" style="shape=umlActor;verticalLabelPosition=bottom;verticalAlign=top;html=1;" parent="Vqz1aeMNSxQNZWVuaeiP-1" vertex="1">
                    <mxGeometry x="-70" y="280" width="30" height="60" as="geometry"/>
                </mxCell>
                <mxCell id="nSiE_fP1zriIZRK4lQzF-1" value="ログイン済&lt;br&gt;ホーム画面" style="shape=umlBoundary;whiteSpace=wrap;html=1;fillColor=#dae8fc;strokeColor=#6c8ebf;" parent="Vqz1aeMNSxQNZWVuaeiP-1" vertex="1">
                    <mxGeometry x="120" y="120" width="100" height="80" as="geometry"/>
                </mxCell>
                <mxCell id="nSiE_fP1zriIZRK4lQzF-2" value="詳細画面" style="shape=umlBoundary;whiteSpace=wrap;html=1;fillColor=#dae8fc;strokeColor=#6c8ebf;" parent="Vqz1aeMNSxQNZWVuaeiP-1" vertex="1">
                    <mxGeometry x="120" y="440" width="100" height="80" as="geometry"/>
                </mxCell>
                <mxCell id="nSiE_fP1zriIZRK4lQzF-3" value="" style="endArrow=classic;html=1;rounded=0;" parent="Vqz1aeMNSxQNZWVuaeiP-1" edge="1">
                    <mxGeometry width="50" height="50" relative="1" as="geometry">
                        <mxPoint x="-30.000000000000227" y="320" as="sourcePoint"/>
                        <mxPoint x="110" y="159.9999999999999" as="targetPoint"/>
                    </mxGeometry>
                </mxCell>
                <mxCell id="nSiE_fP1zriIZRK4lQzF-4" value="" style="endArrow=classic;html=1;rounded=0;" parent="Vqz1aeMNSxQNZWVuaeiP-1" edge="1">
                    <mxGeometry width="50" height="50" relative="1" as="geometry">
                        <mxPoint x="-30.000000000000227" y="320" as="sourcePoint"/>
                        <mxPoint x="100.00000000000068" y="320" as="targetPoint"/>
                    </mxGeometry>
                </mxCell>
                <mxCell id="nSiE_fP1zriIZRK4lQzF-5" value="" style="endArrow=classic;html=1;rounded=0;" parent="Vqz1aeMNSxQNZWVuaeiP-1" edge="1">
                    <mxGeometry width="50" height="50" relative="1" as="geometry">
                        <mxPoint x="-30.000000000000227" y="320" as="sourcePoint"/>
                        <mxPoint x="110" y="480" as="targetPoint"/>
                    </mxGeometry>
                </mxCell>
                <mxCell id="nSiE_fP1zriIZRK4lQzF-7" value="ベンチマーク情報" style="ellipse;shape=umlEntity;whiteSpace=wrap;html=1;fillColor=#d5e8d4;strokeColor=#82b366;" parent="Vqz1aeMNSxQNZWVuaeiP-1" vertex="1">
                    <mxGeometry x="720" y="200" width="80" height="80" as="geometry"/>
                </mxCell>
                <mxCell id="nSiE_fP1zriIZRK4lQzF-8" value="表示する" style="ellipse;shape=umlControl;whiteSpace=wrap;html=1;fillColor=#f8cecc;strokeColor=#b85450;" parent="Vqz1aeMNSxQNZWVuaeiP-1" vertex="1">
                    <mxGeometry x="440" y="280" width="70" height="80" as="geometry"/>
                </mxCell>
                <mxCell id="nSiE_fP1zriIZRK4lQzF-9" value="" style="endArrow=classic;html=1;rounded=0;" parent="Vqz1aeMNSxQNZWVuaeiP-1" edge="1">
                    <mxGeometry width="50" height="50" relative="1" as="geometry">
                        <mxPoint x="240" y="159.17000000000007" as="sourcePoint"/>
                        <mxPoint x="430" y="159.0000000000001" as="targetPoint"/>
                    </mxGeometry>
                </mxCell>
                <mxCell id="nSiE_fP1zriIZRK4lQzF-11" value="" style="endArrow=classic;html=1;rounded=0;startArrow=classic;startFill=1;" parent="Vqz1aeMNSxQNZWVuaeiP-1" edge="1">
                    <mxGeometry width="50" height="50" relative="1" as="geometry">
                        <mxPoint x="520" y="159.9999999999999" as="sourcePoint"/>
                        <mxPoint x="710.0000000000005" y="239.9999999999999" as="targetPoint"/>
                    </mxGeometry>
                </mxCell>
                <mxCell id="nSiE_fP1zriIZRK4lQzF-12" value="" style="endArrow=none;html=1;rounded=0;jumpStyle=none;startArrow=classic;startFill=1;endFill=0;" parent="Vqz1aeMNSxQNZWVuaeiP-1" edge="1">
                    <mxGeometry width="50" height="50" relative="1" as="geometry">
                        <mxPoint x="430" y="320" as="sourcePoint"/>
                        <mxPoint x="240" y="320" as="targetPoint"/>
                    </mxGeometry>
                </mxCell>
                <mxCell id="nSiE_fP1zriIZRK4lQzF-13" value="" style="endArrow=classic;html=1;rounded=0;" parent="Vqz1aeMNSxQNZWVuaeiP-1" edge="1">
                    <mxGeometry width="50" height="50" relative="1" as="geometry">
                        <mxPoint x="430" y="169.9999999999999" as="sourcePoint"/>
                        <mxPoint x="240" y="310" as="targetPoint"/>
                    </mxGeometry>
                </mxCell>
                <mxCell id="nSiE_fP1zriIZRK4lQzF-14" value="" style="endArrow=classic;html=1;rounded=0;jumpStyle=none;startArrow=classic;startFill=1;endFill=1;" parent="Vqz1aeMNSxQNZWVuaeiP-1" edge="1">
                    <mxGeometry width="50" height="50" relative="1" as="geometry">
                        <mxPoint x="240" y="480" as="sourcePoint"/>
                        <mxPoint x="430" y="330" as="targetPoint"/>
                    </mxGeometry>
                </mxCell>
                <mxCell id="nSiE_fP1zriIZRK4lQzF-15" value="ベンチマーク&lt;br&gt;情報一覧画面" style="shape=umlBoundary;whiteSpace=wrap;html=1;fillColor=#dae8fc;strokeColor=#6c8ebf;" parent="Vqz1aeMNSxQNZWVuaeiP-1" vertex="1">
                    <mxGeometry x="120" y="280" width="100" height="80" as="geometry"/>
                </mxCell>
                <mxCell id="QwaG9jZXCIXz2D_TahUL-0" value="ベンチマーク&lt;br&gt;マスタ情報&lt;br&gt;を取得する" style="ellipse;shape=umlControl;whiteSpace=wrap;html=1;fillColor=#f8cecc;strokeColor=#b85450;" parent="Vqz1aeMNSxQNZWVuaeiP-1" vertex="1">
                    <mxGeometry x="440" y="110" width="80" height="90" as="geometry"/>
                </mxCell>
                <mxCell id="z9AlBpr7LHTCgQyZx6nX-0" value="「ベンチマークマスタ情報」&lt;br&gt;を押下" style="text;html=1;strokeColor=none;fillColor=none;align=center;verticalAlign=middle;whiteSpace=wrap;rounded=0;" parent="Vqz1aeMNSxQNZWVuaeiP-1" vertex="1">
                    <mxGeometry x="254" y="120" width="160" height="30" as="geometry"/>
                </mxCell>
                <mxCell id="z9AlBpr7LHTCgQyZx6nX-1" value="編集画面" style="shape=umlBoundary;whiteSpace=wrap;html=1;fillColor=#dae8fc;strokeColor=#6c8ebf;" parent="Vqz1aeMNSxQNZWVuaeiP-1" vertex="1">
                    <mxGeometry x="120" y="600" width="100" height="80" as="geometry"/>
                </mxCell>
                <mxCell id="z9AlBpr7LHTCgQyZx6nX-2" value="" style="endArrow=none;html=1;rounded=0;jumpStyle=none;startArrow=classic;startFill=1;endFill=0;" parent="Vqz1aeMNSxQNZWVuaeiP-1" edge="1">
                    <mxGeometry width="50" height="50" relative="1" as="geometry">
                        <mxPoint x="240" y="630" as="sourcePoint"/>
                        <mxPoint x="430" y="340" as="targetPoint"/>
                    </mxGeometry>
                </mxCell>
                <mxCell id="z9AlBpr7LHTCgQyZx6nX-3" value="" style="endArrow=classic;html=1;rounded=0;" parent="Vqz1aeMNSxQNZWVuaeiP-1" edge="1">
                    <mxGeometry width="50" height="50" relative="1" as="geometry">
                        <mxPoint x="-30" y="320" as="sourcePoint"/>
                        <mxPoint x="110" y="640" as="targetPoint"/>
                    </mxGeometry>
                </mxCell>
                <mxCell id="z9AlBpr7LHTCgQyZx6nX-4" value="入力データを検証する" style="ellipse;shape=umlControl;whiteSpace=wrap;html=1;fillColor=#f8cecc;strokeColor=#b85450;" parent="Vqz1aeMNSxQNZWVuaeiP-1" vertex="1">
                    <mxGeometry x="440" y="600" width="70" height="80" as="geometry"/>
                </mxCell>
                <mxCell id="z9AlBpr7LHTCgQyZx6nX-5" value="更新する" style="ellipse;shape=umlControl;whiteSpace=wrap;html=1;fillColor=#f8cecc;strokeColor=#b85450;" parent="Vqz1aeMNSxQNZWVuaeiP-1" vertex="1">
                    <mxGeometry x="440" y="760" width="70" height="80" as="geometry"/>
                </mxCell>
                <mxCell id="z9AlBpr7LHTCgQyZx6nX-6" value="" style="endArrow=classic;html=1;rounded=0;jumpStyle=none;startArrow=classic;startFill=1;endFill=1;" parent="Vqz1aeMNSxQNZWVuaeiP-1" edge="1">
                    <mxGeometry width="50" height="50" relative="1" as="geometry">
                        <mxPoint x="240" y="640" as="sourcePoint"/>
                        <mxPoint x="430" y="640" as="targetPoint"/>
                    </mxGeometry>
                </mxCell>
                <mxCell id="z9AlBpr7LHTCgQyZx6nX-7" value="" style="endArrow=none;html=1;rounded=0;jumpStyle=none;startArrow=classic;startFill=1;endFill=0;" parent="Vqz1aeMNSxQNZWVuaeiP-1" edge="1">
                    <mxGeometry width="50" height="50" relative="1" as="geometry">
                        <mxPoint x="474.66" y="760" as="sourcePoint"/>
                        <mxPoint x="475" y="690" as="targetPoint"/>
                    </mxGeometry>
                </mxCell>
                <mxCell id="z9AlBpr7LHTCgQyZx6nX-8" value="" style="endArrow=none;html=1;rounded=0;jumpStyle=none;startArrow=classic;startFill=1;endFill=0;" parent="Vqz1aeMNSxQNZWVuaeiP-1" edge="1">
                    <mxGeometry width="50" height="50" relative="1" as="geometry">
                        <mxPoint x="710" y="250" as="sourcePoint"/>
                        <mxPoint x="520" y="800" as="targetPoint"/>
                    </mxGeometry>
                </mxCell>
                <mxCell id="z9AlBpr7LHTCgQyZx6nX-9" value="" style="endArrow=classic;html=1;rounded=0;jumpStyle=arc;" parent="Vqz1aeMNSxQNZWVuaeiP-1" edge="1">
                    <mxGeometry width="50" height="50" relative="1" as="geometry">
                        <mxPoint x="430" y="180" as="sourcePoint"/>
                        <mxPoint x="240" y="470" as="targetPoint"/>
                    </mxGeometry>
                </mxCell>
            </root>
        </mxGraphModel>
    </diagram>
    <diagram id="Ufez5nXvk2XaxpIsFsRu" name="*ベンチマークマスタ管理_削除">
        <mxGraphModel dx="1591" dy="339" grid="1" gridSize="10" guides="1" tooltips="1" connect="1" arrows="1" fold="1" page="1" pageScale="1" pageWidth="827" pageHeight="1169" math="0" shadow="0">
            <root>
                <mxCell id="DMxsckBU2M_JoR_AKvYi-0"/>
                <mxCell id="DMxsckBU2M_JoR_AKvYi-1" parent="DMxsckBU2M_JoR_AKvYi-0"/>
                <mxCell id="auUNiC2Mis4MEqBHwmfJ-0" value="管理者&lt;br&gt;正規社員" style="shape=umlActor;verticalLabelPosition=bottom;verticalAlign=top;html=1;" parent="DMxsckBU2M_JoR_AKvYi-1" vertex="1">
                    <mxGeometry x="-70" y="280" width="30" height="60" as="geometry"/>
                </mxCell>
                <mxCell id="auUNiC2Mis4MEqBHwmfJ-1" value="ログイン済&lt;br&gt;ホーム画面" style="shape=umlBoundary;whiteSpace=wrap;html=1;fillColor=#dae8fc;strokeColor=#6c8ebf;" parent="DMxsckBU2M_JoR_AKvYi-1" vertex="1">
                    <mxGeometry x="120" y="120" width="100" height="80" as="geometry"/>
                </mxCell>
                <mxCell id="auUNiC2Mis4MEqBHwmfJ-2" value="詳細画面" style="shape=umlBoundary;whiteSpace=wrap;html=1;fillColor=#dae8fc;strokeColor=#6c8ebf;" parent="DMxsckBU2M_JoR_AKvYi-1" vertex="1">
                    <mxGeometry x="120" y="440" width="100" height="80" as="geometry"/>
                </mxCell>
                <mxCell id="auUNiC2Mis4MEqBHwmfJ-3" value="" style="endArrow=classic;html=1;rounded=0;" parent="DMxsckBU2M_JoR_AKvYi-1" edge="1">
                    <mxGeometry width="50" height="50" relative="1" as="geometry">
                        <mxPoint x="-30" y="320" as="sourcePoint"/>
                        <mxPoint x="110" y="160" as="targetPoint"/>
                    </mxGeometry>
                </mxCell>
                <mxCell id="auUNiC2Mis4MEqBHwmfJ-4" value="" style="endArrow=classic;html=1;rounded=0;" parent="DMxsckBU2M_JoR_AKvYi-1" edge="1">
                    <mxGeometry width="50" height="50" relative="1" as="geometry">
                        <mxPoint x="-30" y="320" as="sourcePoint"/>
                        <mxPoint x="100.00000000000045" y="320" as="targetPoint"/>
                    </mxGeometry>
                </mxCell>
                <mxCell id="auUNiC2Mis4MEqBHwmfJ-5" value="" style="endArrow=classic;html=1;rounded=0;" parent="DMxsckBU2M_JoR_AKvYi-1" edge="1">
                    <mxGeometry width="50" height="50" relative="1" as="geometry">
                        <mxPoint x="-30" y="320" as="sourcePoint"/>
                        <mxPoint x="110" y="480" as="targetPoint"/>
                    </mxGeometry>
                </mxCell>
                <mxCell id="auUNiC2Mis4MEqBHwmfJ-6" value="ベンチマーク情報" style="ellipse;shape=umlEntity;whiteSpace=wrap;html=1;fillColor=#d5e8d4;strokeColor=#82b366;" parent="DMxsckBU2M_JoR_AKvYi-1" vertex="1">
                    <mxGeometry x="720" y="200" width="80" height="80" as="geometry"/>
                </mxCell>
                <mxCell id="auUNiC2Mis4MEqBHwmfJ-7" value="表示する" style="ellipse;shape=umlControl;whiteSpace=wrap;html=1;fillColor=#f8cecc;strokeColor=#b85450;" parent="DMxsckBU2M_JoR_AKvYi-1" vertex="1">
                    <mxGeometry x="440" y="280" width="70" height="80" as="geometry"/>
                </mxCell>
                <mxCell id="auUNiC2Mis4MEqBHwmfJ-8" value="" style="endArrow=classic;html=1;rounded=0;" parent="DMxsckBU2M_JoR_AKvYi-1" edge="1">
                    <mxGeometry width="50" height="50" relative="1" as="geometry">
                        <mxPoint x="240" y="159.17000000000007" as="sourcePoint"/>
                        <mxPoint x="430" y="159" as="targetPoint"/>
                    </mxGeometry>
                </mxCell>
                <mxCell id="auUNiC2Mis4MEqBHwmfJ-9" value="「ベンチマークマスタ情報」&lt;br&gt;を押下" style="text;html=1;strokeColor=none;fillColor=none;align=center;verticalAlign=middle;whiteSpace=wrap;rounded=0;" parent="DMxsckBU2M_JoR_AKvYi-1" vertex="1">
                    <mxGeometry x="254" y="120" width="160" height="30" as="geometry"/>
                </mxCell>
                <mxCell id="auUNiC2Mis4MEqBHwmfJ-10" value="" style="endArrow=classic;html=1;rounded=0;startArrow=classic;startFill=1;" parent="DMxsckBU2M_JoR_AKvYi-1" edge="1">
                    <mxGeometry width="50" height="50" relative="1" as="geometry">
                        <mxPoint x="520" y="160" as="sourcePoint"/>
                        <mxPoint x="710.0000000000005" y="240" as="targetPoint"/>
                    </mxGeometry>
                </mxCell>
                <mxCell id="auUNiC2Mis4MEqBHwmfJ-11" value="" style="endArrow=none;html=1;rounded=0;jumpStyle=none;startArrow=classic;startFill=1;endFill=0;" parent="DMxsckBU2M_JoR_AKvYi-1" edge="1">
                    <mxGeometry width="50" height="50" relative="1" as="geometry">
                        <mxPoint x="430" y="320" as="sourcePoint"/>
                        <mxPoint x="240" y="320" as="targetPoint"/>
                    </mxGeometry>
                </mxCell>
                <mxCell id="auUNiC2Mis4MEqBHwmfJ-12" value="" style="endArrow=classic;html=1;rounded=0;" parent="DMxsckBU2M_JoR_AKvYi-1" edge="1">
                    <mxGeometry width="50" height="50" relative="1" as="geometry">
                        <mxPoint x="430" y="170" as="sourcePoint"/>
                        <mxPoint x="240" y="310" as="targetPoint"/>
                    </mxGeometry>
                </mxCell>
                <mxCell id="auUNiC2Mis4MEqBHwmfJ-13" value="" style="endArrow=none;html=1;rounded=0;jumpStyle=none;startArrow=classic;startFill=1;endFill=0;" parent="DMxsckBU2M_JoR_AKvYi-1" edge="1">
                    <mxGeometry width="50" height="50" relative="1" as="geometry">
                        <mxPoint x="240" y="470" as="sourcePoint"/>
                        <mxPoint x="430" y="330" as="targetPoint"/>
                    </mxGeometry>
                </mxCell>
                <mxCell id="auUNiC2Mis4MEqBHwmfJ-14" value="ベンチマーク&lt;br&gt;情報一覧画面" style="shape=umlBoundary;whiteSpace=wrap;html=1;fillColor=#dae8fc;strokeColor=#6c8ebf;" parent="DMxsckBU2M_JoR_AKvYi-1" vertex="1">
                    <mxGeometry x="120" y="280" width="100" height="80" as="geometry"/>
                </mxCell>
                <mxCell id="auUNiC2Mis4MEqBHwmfJ-15" value="ベンチマーク&lt;br&gt;マスタ情報&lt;br&gt;を取得する" style="ellipse;shape=umlControl;whiteSpace=wrap;html=1;fillColor=#f8cecc;strokeColor=#b85450;" parent="DMxsckBU2M_JoR_AKvYi-1" vertex="1">
                    <mxGeometry x="440" y="110" width="80" height="90" as="geometry"/>
                </mxCell>
                <mxCell id="auUNiC2Mis4MEqBHwmfJ-16" value="削除する" style="ellipse;shape=umlControl;whiteSpace=wrap;html=1;fillColor=#f8cecc;strokeColor=#b85450;" parent="DMxsckBU2M_JoR_AKvYi-1" vertex="1">
                    <mxGeometry x="445" y="440" width="70" height="80" as="geometry"/>
                </mxCell>
                <mxCell id="auUNiC2Mis4MEqBHwmfJ-17" value="" style="endArrow=none;html=1;rounded=0;jumpStyle=none;startArrow=classic;startFill=1;endFill=0;" parent="DMxsckBU2M_JoR_AKvYi-1" edge="1">
                    <mxGeometry width="50" height="50" relative="1" as="geometry">
                        <mxPoint x="430" y="480" as="sourcePoint"/>
                        <mxPoint x="240" y="480" as="targetPoint"/>
                    </mxGeometry>
                </mxCell>
                <mxCell id="auUNiC2Mis4MEqBHwmfJ-18" value="" style="endArrow=none;html=1;rounded=0;jumpStyle=none;startArrow=classic;startFill=1;endFill=0;" parent="DMxsckBU2M_JoR_AKvYi-1" edge="1">
                    <mxGeometry width="50" height="50" relative="1" as="geometry">
                        <mxPoint x="710" y="250" as="sourcePoint"/>
                        <mxPoint x="530" y="480" as="targetPoint"/>
                    </mxGeometry>
                </mxCell>
            </root>
        </mxGraphModel>
    </diagram>
</mxfile>